<?xml version="1.0" encoding="utf-8"?>
<!-- Generator: Adobe Illustrator 27.3.1, SVG Export Plug-In . SVG Version: 6.00 Build 0)  -->
<svg version="1.1" id="Calque_1" xmlns="http://www.w3.org/2000/svg" xmlns:xlink="http://www.w3.org/1999/xlink" x="0px" y="0px"
	 viewBox="0 0 50 50" style="enable-background:new 0 0 50 50;" xml:space="preserve">
<style type="text/css">
	.st0{fill:none;}
	.st1{fill:#00933A;}
</style>
<g>
	<path class="st0" d="M22.85,40.19c0.32,0.25,0.59,0.52,0.82,0.82L23.7,37c-0.61,0.98-1.2,1.82-1.8,2.54
		C22.22,39.72,22.53,39.94,22.85,40.19z"/>
	<path class="st0" d="M21.18,34.96c-0.55,0.63-1.14,1.25-1.78,1.87c-0.63,0.62-1.26,1.2-1.9,1.73c1.44,0.03,2.76,0.29,3.97,0.78
		c0.81-0.72,1.55-1.6,2.22-2.64v-5.3c-0.24,0.52-0.59,1.09-1.03,1.7C22.23,33.72,21.73,34.34,21.18,34.96z"/>
	<path class="st0" d="M44,18.01v-2.82h0.72v-0.53h-0.64v-1.94h0.6v-0.58h-0.64V9.84c1.33-0.68,1.12-2.14,0.2-3.55
		C43.4,5.01,43.06,2.92,43,2.56c-0.05,0.36-0.39,2.45-1.23,3.73c-0.92,1.41-1.12,2.87,0.2,3.55v2.29h-0.64v0.58h0.6v1.94h-0.64v0.53
		h0.72v2.82l-0.94,1.14v4.27c1.54,0.85,2.85,1.78,3.88,2.91v-7.18L44,18.01z"/>
	<path class="st0" d="M16.24,38.88c-0.43,0.03-0.87,0.1-1.32,0.21c-0.45,0.11-0.9,0.24-1.33,0.4c-0.44,0.16-0.86,0.34-1.26,0.52
		c-0.4,0.19-0.77,0.38-1.11,0.57c0.15,0.1,0.35,0.2,0.62,0.31c0.26,0.11,0.49,0.22,0.7,0.35c0.65-0.39,1.28-0.77,1.92-1.15
		C15.08,39.73,15.67,39.32,16.24,38.88z"/>
	<path class="st0" d="M15.97,39.8c-0.4,0.3-0.78,0.57-1.14,0.81c-0.36,0.24-0.7,0.43-1.01,0.59c-0.31,0.15-0.57,0.26-0.79,0.31
		c1.37,0.54,2.77,0.63,4.19,0.27c1.42-0.36,2.75-1.08,3.98-2.15c-1.29-0.51-2.64-0.76-4.06-0.76C16.76,39.19,16.36,39.5,15.97,39.8z
		"/>
	<path d="M23.7,30.53c-0.34,0.6-0.77,1.26-1.29,1.95c-0.52,0.7-1.11,1.41-1.74,2.11s-1.31,1.41-2.02,2.09
		c-0.71,0.68-1.4,1.32-2.09,1.91c-0.44,0.03-0.91,0.1-1.39,0.21c-0.48,0.11-0.97,0.24-1.45,0.42s-0.96,0.37-1.41,0.59
		c-0.46,0.22-0.87,0.44-1.25,0.67c-0.59-0.36-1.21-0.73-1.85-1.12c-0.64-0.39-1.27-0.73-1.9-1.01c-0.63-0.28-1.23-0.47-1.81-0.56
		c-0.58-0.09-1.1-0.03-1.57,0.18L2.5,39.23c0.54-0.21,1.09-0.28,1.65-0.21c0.56,0.07,1.15,0.23,1.74,0.48
		c0.6,0.24,1.21,0.55,1.85,0.92c0.63,0.37,1.28,0.73,1.96,1.09c-0.66,0.68-1.2,1.51-1.61,2.47c-0.2,0.62-0.23,1.12-0.09,1.51
		c0.14,0.39,0.38,0.7,0.72,0.92c0.34,0.22,0.73,0.37,1.19,0.44c0.46,0.07,0.89,0.1,1.31,0.09c0.74-0.02,1.75-0.21,3.04-0.59
		s2.77-0.85,4.45-1.42c-1.53,0.42-2.91,0.81-4.13,1.16c-1.22,0.35-2.34,0.56-3.38,0.62c-0.24,0.02-0.56,0-0.97-0.06
		s-0.78-0.18-1.14-0.37c-0.36-0.19-0.63-0.46-0.82-0.82c-0.19-0.36-0.19-0.84,0-1.44c0.17-0.46,0.39-0.89,0.65-1.3
		c0.26-0.41,0.56-0.79,0.93-1.15c0.87,0.47,1.78,0.89,2.71,1.25c0.94,0.36,1.9,0.53,2.89,0.51c0.99-0.02,2-0.28,3.04-0.81
		c1.04-0.52,2.1-1.42,3.19-2.71c0.15,0.05,0.34,0.14,0.57,0.28c0.24,0.14,0.46,0.28,0.68,0.44c0.22,0.15,0.4,0.32,0.56,0.49
		c0.16,0.17,0.25,0.32,0.26,0.45c-0.2,0.54-0.35,0.93-0.45,1.17s-0.2,0.42-0.3,0.54c-0.1,0.11-0.22,0.19-0.35,0.24
		c-0.13,0.05-0.33,0.15-0.59,0.32c0.74-0.23,1.32-0.48,1.73-0.76c0.42-0.28,0.73-0.69,0.95-1.23c0.21-0.55,0.35-1.3,0.4-2.25
		c0.05-0.95,0.08-2.21,0.08-3.77v-9.06l-1.51,3.37L23.7,30.53L23.7,30.53z M12.53,41.25c-0.2-0.13-0.43-0.25-0.7-0.35
		c-0.26-0.11-0.47-0.21-0.62-0.31c0.34-0.19,0.71-0.39,1.11-0.57c0.4-0.19,0.82-0.36,1.26-0.52c0.44-0.16,0.88-0.3,1.33-0.4
		c0.45-0.1,0.89-0.17,1.32-0.21c-0.56,0.44-1.16,0.85-1.8,1.22C13.81,40.48,13.17,40.86,12.53,41.25z M17.22,41.77
		c-1.42,0.36-2.81,0.27-4.19-0.27c0.22-0.05,0.48-0.15,0.79-0.31c0.31-0.15,0.65-0.35,1.01-0.59c0.36-0.24,0.74-0.51,1.14-0.81
		c0.4-0.3,0.79-0.61,1.18-0.94c1.41,0,2.76,0.25,4.06,0.76C19.96,40.69,18.64,41.41,17.22,41.77z M23.66,41.01
		c-0.23-0.29-0.5-0.57-0.82-0.82c-0.32-0.25-0.63-0.47-0.94-0.65c0.59-0.72,1.19-1.56,1.8-2.54L23.66,41.01z M23.7,36.71
		c-0.67,1.04-1.41,1.92-2.22,2.64c-1.21-0.49-2.54-0.75-3.97-0.78c0.63-0.54,1.26-1.12,1.9-1.73c0.63-0.62,1.22-1.24,1.78-1.87
		c0.55-0.63,1.05-1.25,1.49-1.86c0.44-0.61,0.79-1.18,1.03-1.7L23.7,36.71L23.7,36.71z"/>
	<path d="M32.62,44.66c0-0.01,0.01-0.03,0.01-0.04c0-0.02,0-0.04,0-0.06L32.62,44.66z"/>
	<path d="M33.88,45.11c-0.01,0.65,0.09-0.64,0.21-1.7C34.15,41.56,33.89,44.39,33.88,45.11z"/>
	<path d="M35.56,45.51c-0.19,0.18-0.39,0.33-0.62,0.46c-0.22,0.13-0.42,0.15-0.6,0.07c-0.07-0.03-0.13-0.26-0.18-0.68
		c-0.05-0.42-0.12-0.98-0.09-1.66c0-0.11,0.01-0.21,0.01-0.29c-0.12,1.06-0.22,2.35-0.21,1.7c0.01-0.72,0.27-3.56,0.21-1.7
		c0.04-0.36,0.08-0.7,0.12-0.92c0.16-0.89,0.39-1.75,0.68-2.6c0.29-0.85,0.66-1.6,1.12-2.25c-0.17,0.13-0.43,0.3-0.77,0.51
		c-0.34,0.21-0.72,0.45-1.14,0.72c-0.42,0.27-0.88,0.57-1.36,0.89c-0.48,0.33-0.96,0.66-1.43,1c0.01-0.68,0.02-1.2,0.02-1.54
		c0-0.34,0-0.6,0-0.78c0-0.18,0-0.31,0.01-0.4c0.01-0.09,0.02-0.22,0.03-0.4l-3.57,2.59l0.04-2.62l-1.68,1.83v1.86
		c0,0.24-0.03,0.49-0.08,0.73c-0.05,0.23-0.13,0.47-0.24,0.72c-0.11,0.25-0.28,0.51-0.5,0.77c0.82-1.01,1.61-1.87,2.36-2.59
		s1.43-1.21,2.04-1.49c0,1.69-0.02,3.06-0.06,4.1c0.11-0.28,0.35-0.63,0.72-1.06c0.37-0.43,0.8-0.86,1.28-1.3
		c0.48-0.43,0.98-0.83,1.49-1.18c0.51-0.36,0.95-0.6,1.33-0.73c-0.32,0.36-0.62,0.88-0.88,1.55c-0.26,0.68-0.49,1.42-0.69,2.24
		c-0.12,0.51-0.22,1.03-0.31,1.56c0.02,0.61,0.07,1.16,0.17,1.62c0.11,0.55,0.3,0.92,0.55,1.1c0.23,0.16,0.46,0.2,0.69,0.11
		c0.23-0.09,0.46-0.27,0.7-0.52c0.24-0.26,0.48-0.58,0.73-0.97c0.25-0.38,0.51-0.79,0.8-1.23C36.02,45.04,35.79,45.3,35.56,45.51z"
		/>
	<path d="M43.89,42.56c-0.37,0.02-0.73-0.03-1.08-0.17c-0.35-0.14-0.67-0.35-0.95-0.65c-0.28-0.29-0.5-0.65-0.67-1.08l-1.49,1.17
		v0.39c-0.11,0-0.25,0-0.43,0.01c-0.18,0.01-0.37,0-0.56-0.01c-0.19-0.02-0.37-0.05-0.53-0.1c-0.17-0.05-0.28-0.12-0.33-0.22
		c-0.09-0.15-0.14-0.31-0.15-0.5c-0.01-0.19,0.01-0.37,0.06-0.55c0.05-0.18,0.11-0.35,0.19-0.51c0.08-0.16,0.17-0.31,0.26-0.44
		c0.11-0.05,0.22-0.1,0.34-0.16c0.12-0.06,0.24-0.1,0.36-0.13c0.15,0.18,0.29,0.31,0.43,0.38c0.14,0.07,0.33,0.18,0.56,0.31
		l1.53-1.22c-0.15-0.08-0.28-0.15-0.38-0.19c-0.11-0.05-0.21-0.1-0.3-0.17c-0.09-0.06-0.18-0.14-0.27-0.23
		c-0.09-0.09-0.19-0.22-0.31-0.4c-0.11-0.16-0.25-0.28-0.43-0.37c-0.18-0.08-0.38-0.13-0.59-0.13c-0.21-0.01-0.41,0.02-0.62,0.07
		c-0.2,0.06-0.37,0.13-0.5,0.23c-0.19,0.13-0.37,0.27-0.56,0.43s-0.37,0.31-0.56,0.45c0.23-0.11,0.42-0.19,0.59-0.24
		c0.16-0.05,0.31-0.05,0.43-0.01c0.13,0.04,0.25,0.12,0.36,0.24c0.11,0.12,0.24,0.3,0.37,0.52l-1.45,1.15
		c-0.16,0.13-0.32,0.3-0.48,0.5c-0.16,0.2-0.29,0.43-0.39,0.67c-0.1,0.24-0.16,0.5-0.17,0.76c-0.01,0.26,0.05,0.51,0.18,0.73
		c0.15,0.24,0.33,0.37,0.55,0.37c0.22,0,0.43,0.01,0.65,0.02c0.3,0.02,0.61,0.02,0.93,0.01c0.32-0.01,0.61-0.11,0.87-0.31l0.77-0.59
		c0.2,0.28,0.44,0.52,0.73,0.72c0.28,0.2,0.57,0.35,0.88,0.44c0.3,0.09,0.61,0.11,0.93,0.07c0.32-0.04,0.61-0.16,0.88-0.35
		c0.25-0.19,0.5-0.39,0.75-0.59c0.24-0.19,0.49-0.39,0.75-0.59l-0.04-0.1C44.62,42.42,44.26,42.54,43.89,42.56z"/>
	<path class="st1" d="M44.24,6.29c0.92,1.41,1.12,2.87-0.2,3.55v2.29h0.64v0.58h-0.6v1.94h0.64v0.53H44v2.82l0.94,1.14v7.18
		c0.35,0.38,0.66,0.79,0.94,1.21v-8.47l-1.32-1.55v-1.9h0.76v-1.56H44.6v-0.63h0.8v-1.7h-0.84v-1.31c0,0,2.09-1.07,1.12-3.21
		C44.73,5.1,43.42,4.03,43,2.54c0,0.01,0,0.01,0,0.02C43.06,2.92,43.4,5.01,44.24,6.29z"/>
	<path class="st1" d="M42.99,2.5c0,0,0,0.01,0.01,0.04c0,0,0-0.01,0-0.01C43,2.52,43,2.51,42.99,2.5z"/>
	<path class="st1" d="M41.07,19.15l0.94-1.14v-2.82h-0.72v-0.53h0.64v-1.94h-0.6v-0.58h0.64V9.84c-1.33-0.68-1.12-2.14-0.2-3.55
		c0.84-1.28,1.18-3.37,1.23-3.73c0-0.01,0-0.02,0-0.02c-0.41,1.49-1.72,2.56-2.68,4.68c-0.96,2.14,1.12,3.21,1.12,3.21v1.31H40.6
		v1.7h0.8v0.63h-0.72v1.56h0.76v1.9l-1.32,1.55v3.84c0.32,0.16,0.64,0.33,0.94,0.5L41.07,19.15L41.07,19.15z"/>
	<path class="st1" d="M43.01,2.5c0,0.01-0.01,0.02-0.01,0.03c0,0,0,0.01,0,0.01C43.01,2.52,43.01,2.5,43.01,2.5z"/>
	<path class="st1" d="M43.01,2.54c0,0,0-0.01,0-0.01C43,2.53,43,2.54,43.01,2.54C43,2.55,43,2.56,43,2.56
		C43,2.55,43,2.54,43.01,2.54z"/>
	<path class="st1" d="M9.06,35.92c0.03,0.67,0.14,1.06,0.14,1.06C9.14,36.61,9.1,36.26,9.06,35.92z"/>
	<path class="st1" d="M28.22,12.7c0-0.01,0-0.02,0-0.02s-1.31,5.55-8.64,8.72c-7.05,3.05-11.47,5.78-10.52,14.52
		c-0.11-2.25,0.6-7.67,8.88-11.82c9.55-4.8,10.24-10.09,10.28-11.2C28.21,12.8,28.21,12.73,28.22,12.7z"/>
	<path class="st1" d="M45.88,27.54v1.65l-0.94-1.75v-1.11c-1.03-1.12-2.34-2.05-3.88-2.91v0.91h-0.94v-1.41
		c-1.01-0.51-2.1-1.01-3.27-1.51c-7.33-3.17-8.64-8.72-8.64-8.72s0,0.01,0,0.02c0,0.03,0,0.09,0,0.19
		c0.04,1.11,0.72,6.41,10.28,11.2c8.28,4.16,8.99,9.57,8.88,11.83C47.78,32.2,47.21,29.57,45.88,27.54z"/>
	<path class="st1" d="M47.37,35.92c-0.04,0.34-0.08,0.69-0.14,1.06C47.24,36.98,47.34,36.59,47.37,35.92z"/>
	<path class="st1" d="M44.94,26.33v1.11l0.94,1.75v-1.65C45.6,27.11,45.29,26.71,44.94,26.33z"/>
	<path class="st1" d="M41.07,24.32v-0.91c-0.31-0.17-0.62-0.34-0.94-0.5v1.41L41.07,24.32L41.07,24.32z"/>
	<path class="st1" d="M28.22,12.7c0,0.03,0,0.09,0,0.19C28.22,12.8,28.22,12.73,28.22,12.7z"/>
</g>
</svg>
